<?xml version="1.0" ?>
<svg xmlns="http://www.w3.org/2000/svg" version="1.1" width="224" height="224">
  <defs/>
  <g>
    <path d="M 83.66451263427734 121.28021240234375 C 82.3349838256836 141.66497802734375 90.40370178222656 130.5120849609375 83.31361389160156 122.304443359375" stroke-width="3.0" fill="none" stroke="rgb(0, 0, 0)" stroke-opacity="1.0" stroke-linecap="round" stroke-linejoin="round"/>
    <path d="M 74.14363861083984 88.06108856201172 C 69.6944580078125 65.9491958618164 92.16746520996094 65.47225189208984 102.17770385742188 71.5873794555664" stroke-width="3.0" fill="none" stroke="rgb(0, 0, 0)" stroke-opacity="1.0" stroke-linecap="round" stroke-linejoin="round"/>
    <path d="M 187.21400451660156 241.4598846435547 C 194.94224548339844 245.45938110351562 191.45062255859375 238.22134399414062 184.97918701171875 183.86495971679688" stroke-width="3.0" fill="none" stroke="rgb(0, 0, 0)" stroke-opacity="1.0" stroke-linecap="round" stroke-linejoin="round"/>
    <path d="M 117.44691467285156 110.80961608886719 C 72.92860412597656 99.19220733642578 93.33511352539062 123.81523132324219 113.3997573852539 120.25482940673828" stroke-width="3.0" fill="none" stroke="rgb(0, 0, 0)" stroke-opacity="1.0" stroke-linecap="round" stroke-linejoin="round"/>
    <path d="M 8.744575500488281 246.2926483154297 C 19.76211166381836 209.58738708496094 12.584080696105957 230.7053680419922 9.631819725036621 243.64230346679688" stroke-width="3.0" fill="none" stroke="rgb(0, 0, 0)" stroke-opacity="1.0" stroke-linecap="round" stroke-linejoin="round"/>
    <path d="M 90.55719757080078 78.30926513671875 C 112.015380859375 84.34795379638672 90.60942077636719 72.18038177490234 84.00791931152344 80.58229064941406" stroke-width="3.0" fill="none" stroke="rgb(0, 0, 0)" stroke-opacity="1.0" stroke-linecap="round" stroke-linejoin="round"/>
    <path d="M 102.8121566772461 30.03093719482422 C 139.1841583251953 41.31242752075195 145.6582794189453 40.003021240234375 112.89158630371094 26.119516372680664" stroke-width="3.0" fill="none" stroke="rgb(0, 0, 0)" stroke-opacity="1.0" stroke-linecap="round" stroke-linejoin="round"/>
    <path d="M 100.69562530517578 114.87264251708984 C 80.65609741210938 96.65567779541016 102.66309356689453 107.30180358886719 106.05329132080078 86.10391235351562" stroke-width="3.0" fill="none" stroke="rgb(0, 0, 0)" stroke-opacity="1.0" stroke-linecap="round" stroke-linejoin="round"/>
    <path d="M 95.93533325195312 81.21524047851562 C 73.34729766845703 78.17394256591797 103.02349090576172 69.30238342285156 104.12875366210938 78.15501403808594" stroke-width="3.0" fill="none" stroke="rgb(0, 0, 0)" stroke-opacity="1.0" stroke-linecap="round" stroke-linejoin="round"/>
    <path d="M 31.370473861694336 232.30995178222656 C 31.52829360961914 191.7274169921875 23.87093734741211 204.3656005859375 29.341337203979492 179.63121032714844" stroke-width="3.0" fill="none" stroke="rgb(0, 0, 0)" stroke-opacity="1.0" stroke-linecap="round" stroke-linejoin="round"/>
    <path d="M 81.09284210205078 115.01750183105469 C 73.09603881835938 99.972412109375 77.12918853759766 88.81639099121094 83.09767150878906 49.10978698730469" stroke-width="3.0" fill="none" stroke="rgb(0, 0, 0)" stroke-opacity="1.0" stroke-linecap="round" stroke-linejoin="round"/>
    <path d="M 134.51828002929688 188.06570434570312 C 146.4277801513672 151.26649475097656 155.1821746826172 157.1754913330078 128.48757934570312 140.32440185546875" stroke-width="3.0" fill="none" stroke="rgb(0, 0, 0)" stroke-opacity="1.0" stroke-linecap="round" stroke-linejoin="round"/>
    <path d="M 113.16110229492188 79.80622863769531 C 106.79010772705078 101.4997787475586 141.4897003173828 96.36825561523438 112.60379791259766 115.48493957519531" stroke-width="3.0" fill="none" stroke="rgb(0, 0, 0)" stroke-opacity="1.0" stroke-linecap="round" stroke-linejoin="round"/>
    <path d="M 129.26414489746094 79.96467590332031 C 106.80509185791016 80.58430480957031 130.9373779296875 71.37492370605469 133.84475708007812 78.48602294921875" stroke-width="3.0" fill="none" stroke="rgb(0, 0, 0)" stroke-opacity="1.0" stroke-linecap="round" stroke-linejoin="round"/>
    <path d="M 125.20445251464844 135.9652557373047 C 174.4346160888672 168.52882385253906 180.70265197753906 129.67796325683594 198.56446838378906 232.57713317871094" stroke-width="3.0" fill="none" stroke="rgb(0, 0, 0)" stroke-opacity="1.0" stroke-linecap="round" stroke-linejoin="round"/>
    <path d="M 139.81349182128906 91.70098114013672 C 134.98597717285156 56.742210388183594 151.49571228027344 40.33384704589844 105.39744567871094 28.217899322509766" stroke-width="3.0" fill="none" stroke="rgb(0, 0, 0)" stroke-opacity="1.0" stroke-linecap="round" stroke-linejoin="round"/>
    <path d="M 192.4303436279297 234.30177307128906 C 183.95001220703125 198.82382202148438 192.56553649902344 203.75906372070312 181.62832641601562 175.18328857421875" stroke-width="3.0" fill="none" stroke="rgb(0, 0, 0)" stroke-opacity="1.0" stroke-linecap="round" stroke-linejoin="round"/>
    <path d="M 70.55918884277344 151.07696533203125 C 61.69979476928711 163.98681640625 82.04216766357422 217.0475311279297 106.77976989746094 218.22610473632812" stroke-width="3.0" fill="none" stroke="rgb(0, 0, 0)" stroke-opacity="1.0" stroke-linecap="round" stroke-linejoin="round"/>
    <path d="M 109.20624542236328 218.30697631835938 C 125.02699279785156 209.29537963867188 130.1114044189453 193.433837890625 135.60598754882812 185.0425567626953" stroke-width="3.0" fill="none" stroke="rgb(0, 0, 0)" stroke-opacity="1.0" stroke-linecap="round" stroke-linejoin="round"/>
    <path d="M 100.6401596069336 94.97100830078125 C 69.25071716308594 134.66688537597656 160.0143585205078 80.65607452392578 117.31240844726562 130.0521240234375" stroke-width="3.0" fill="none" stroke="rgb(0, 0, 0)" stroke-opacity="1.0" stroke-linecap="round" stroke-linejoin="round"/>
    <path d="M 124.91536712646484 24.15821075439453 C 117.99251556396484 46.2576789855957 79.77677154541016 4.2063822746276855 73.79790496826172 90.8995361328125" stroke-width="3.0" fill="none" stroke="rgb(0, 0, 0)" stroke-opacity="1.0" stroke-linecap="round" stroke-linejoin="round"/>
    <path d="M 33.52573013305664 231.74807739257812 C 49.77153396606445 235.6523895263672 67.849365234375 229.62197875976562 62.034576416015625 234.9359893798828" stroke-width="3.0" fill="none" stroke="rgb(0, 0, 0)" stroke-opacity="1.0" stroke-linecap="round" stroke-linejoin="round"/>
    <path d="M 107.6565933227539 103.01773834228516 C 85.93267059326172 89.89729309082031 124.22676086425781 110.00386047363281 113.01404571533203 93.03115844726562" stroke-width="3.0" fill="none" stroke="rgb(0, 0, 0)" stroke-opacity="1.0" stroke-linecap="round" stroke-linejoin="round"/>
    <path d="M 125.89620971679688 123.46277618408203 C 122.63150024414062 137.1104278564453 123.36439514160156 125.28617858886719 125.73728942871094 147.01004028320312" stroke-width="3.0" fill="none" stroke="rgb(0, 0, 0)" stroke-opacity="1.0" stroke-linecap="round" stroke-linejoin="round"/>
    <path d="M 138.17764282226562 94.32229614257812 C 127.47420501708984 124.47602844238281 127.67765045166016 104.21485900878906 114.70602416992188 91.24152374267578" stroke-width="3.0" fill="none" stroke="rgb(0, 0, 0)" stroke-opacity="1.0" stroke-linecap="round" stroke-linejoin="round"/>
    <path d="M 88.53375244140625 40.97878646850586 C 123.15841674804688 24.774442672729492 112.4711685180664 48.1230354309082 129.79501342773438 30.39264488220215" stroke-width="3.0" fill="none" stroke="rgb(0, 0, 0)" stroke-opacity="1.0" stroke-linecap="round" stroke-linejoin="round"/>
    <path d="M 32.042030334472656 220.12930297851562 C 31.744089126586914 214.1484375 31.379959106445312 215.20822143554688 32.404273986816406 237.3642120361328" stroke-width="3.0" fill="none" stroke="rgb(0, 0, 0)" stroke-opacity="1.0" stroke-linecap="round" stroke-linejoin="round"/>
    <path d="M 113.13701629638672 133.8455352783203 C 91.72754669189453 143.6858673095703 83.43814086914062 121.14013671875 79.19379425048828 100.76947021484375" stroke-width="3.0" fill="none" stroke="rgb(0, 0, 0)" stroke-opacity="1.0" stroke-linecap="round" stroke-linejoin="round"/>
    <path d="M 14.651179313659668 235.1972198486328 C 26.255451202392578 143.1380615234375 25.404754638671875 162.327880859375 69.48656463623047 141.766845703125" stroke-width="3.0" fill="none" stroke="rgb(0, 0, 0)" stroke-opacity="1.0" stroke-linecap="round" stroke-linejoin="round"/>
    <path d="M 86.05948638916016 104.75936126708984 C 117.42473602294922 113.56283569335938 61.239925384521484 94.30376434326172 106.873291015625 111.17646789550781" stroke-width="3.0" fill="none" stroke="rgb(0, 0, 0)" stroke-opacity="1.0" stroke-linecap="round" stroke-linejoin="round"/>
    <path d="M 184.7696533203125 236.86715698242188 C 178.5670623779297 225.3491973876953 201.54788208007812 254.6068572998047 187.11598205566406 197.6636199951172" stroke-width="3.0" fill="none" stroke="rgb(0, 0, 0)" stroke-opacity="1.0" stroke-linecap="round" stroke-linejoin="round"/>
    <path d="M 169.20513916015625 203.12196350097656 C 171.1967315673828 220.26171875 172.4927215576172 198.57305908203125 176.36166381835938 245.20770263671875" stroke-width="3.0" fill="none" stroke="rgb(0, 0, 0)" stroke-opacity="1.0" stroke-linecap="round" stroke-linejoin="round"/>
  </g>
</svg>
